<svg width="320" height="83" viewBox="0 0 320 83" fill="none" xmlns="http://www.w3.org/2000/svg">
<g filter="url(#filter0_d)">
<rect x="9" y="5" width="297" height="60" rx="5" fill="url(#paint0_linear)"/>
<rect x="6.5" y="2.5" width="302" height="65" rx="7.5" stroke="#FFC828" stroke-width="5"/>
</g>
<g filter="url(#filter1_i)">
<path d="M39.79 39.1689C39.5 41.7148 38.5601 43.729 36.9702 45.2114C35.3911 46.6831 33.3877 47.3867 30.96 47.3223C28.876 47.2793 27.2646 46.5918 26.126 45.2598C24.9873 43.9277 24.3857 42.0801 24.3213 39.7168C24.2998 38.9111 24.3428 38.1001 24.4502 37.2837L25.0464 33.4004C25.5513 30.0811 26.6416 27.5405 28.3174 25.7788C30.0039 24.0171 32.0933 23.1631 34.5854 23.2168C36.7661 23.249 38.4419 23.9741 39.6128 25.3921C40.7837 26.7993 41.3691 28.8457 41.3691 31.5312L36.7124 31.5151L36.7446 29.9199C36.7124 28.1152 35.8691 27.186 34.2148 27.1323C32.9365 27.0894 31.9268 27.5566 31.1855 28.5342C30.4443 29.501 29.9448 31.0747 29.687 33.2554L29.1069 37.2998C28.9565 38.5889 28.876 39.4321 28.8652 39.8296C28.7578 42.1499 29.5742 43.3477 31.3145 43.4229C32.3994 43.4766 33.2642 43.1919 33.9087 42.5688C34.5532 41.9351 35.0044 40.8125 35.2622 39.2012L39.79 39.1689ZM49.6836 47.3223C47.6211 47.2793 45.9829 46.6025 44.769 45.292C43.5659 43.9814 42.9106 42.1606 42.8032 39.8296C42.7603 39.0239 42.7925 38.2075 42.8999 37.3804L43.4961 33.481C43.8076 31.397 44.4146 29.5493 45.3169 27.938C46.2192 26.3267 47.3418 25.1289 48.6846 24.3447C50.0273 23.5605 51.542 23.1846 53.2285 23.2168C55.3125 23.2598 56.9453 23.9741 58.127 25.3599C59.3193 26.7349 59.9585 28.6201 60.0444 31.0156C60.0659 31.918 60.0176 32.772 59.8994 33.5776L59.3677 37.1709C58.8843 40.3936 57.7939 42.9072 56.0967 44.7119C54.4102 46.5059 52.2725 47.376 49.6836 47.3223ZM55.2749 33.4165C55.4038 32.3101 55.4683 31.4561 55.4683 30.8545C55.4146 28.459 54.5498 27.229 52.874 27.1646C51.585 27.1108 50.543 27.5996 49.748 28.6309C48.9639 29.6514 48.416 31.2573 48.1045 33.4487L47.5405 37.3965C47.4116 38.46 47.3633 39.2925 47.3955 39.894C47.4492 42.1499 48.3354 43.3154 50.0542 43.3906C51.2788 43.4336 52.2832 42.9824 53.0674 42.0371C53.8516 41.0918 54.3994 39.5449 54.7109 37.3965L55.2749 33.4165ZM71.0981 23.5391L72.4678 40.4097L79.6704 23.5391H85.7612L81.6846 47H77.0439L78.1719 40.5063L80.2021 31.2412L73.0156 47H69.8735L68.1011 30.7095L66.7637 40.8125L65.7002 47H61.0757L65.1362 23.5391H71.0981ZM91.562 38.75L90.1279 47H85.5034L89.564 23.5391L97.0889 23.5552C99.1406 23.6196 100.747 24.3555 101.907 25.7627C103.078 27.1592 103.572 28.9639 103.389 31.1768C103.174 33.4756 102.304 35.3179 100.779 36.7036C99.2534 38.0786 97.3091 38.7661 94.9458 38.7661L91.562 38.75ZM92.2388 34.8022L95.2197 34.8345C96.3691 34.813 97.2607 34.3726 97.8945 33.5132C98.5283 32.6431 98.8291 31.4775 98.7969 30.0166C98.7754 29.2754 98.5981 28.6846 98.2651 28.2441C97.9321 27.8037 97.4702 27.562 96.8794 27.519L93.5117 27.4868L92.2388 34.8022ZM112.348 38.4277H109.996L108.513 47H103.889L107.949 23.5391L115.039 23.5552C117.134 23.6196 118.74 24.2642 119.857 25.4888C120.974 26.7134 121.447 28.3838 121.275 30.5C121.006 33.7119 119.545 35.9463 116.892 37.2031L119.245 46.7422V47H114.282L112.348 38.4277ZM110.672 34.48L113.105 34.5122C114.223 34.4907 115.104 34.0503 115.748 33.1909C116.393 32.3208 116.709 31.1714 116.699 29.7427C116.656 28.3354 116.038 27.5889 114.846 27.5029L111.897 27.4868L110.672 34.48ZM133.505 42.1982H127.269L125.223 47H120.195L131.378 23.5391H135.616L138.693 47H133.908L133.505 42.1982ZM128.961 38.2505H133.183L132.522 29.936L128.961 38.2505ZM149.505 38.4277H147.153L145.67 47H141.046L145.106 23.5391L152.196 23.5552C154.291 23.6196 155.897 24.2642 157.014 25.4888C158.131 26.7134 158.604 28.3838 158.432 30.5C158.164 33.7119 156.703 35.9463 154.049 37.2031L156.402 46.7422V47H151.439L149.505 38.4277ZM147.83 34.48L150.263 34.5122C151.38 34.4907 152.261 34.0503 152.905 33.1909C153.55 32.3208 153.867 31.1714 153.856 29.7427C153.813 28.3354 153.195 27.5889 152.003 27.5029L149.054 27.4868L147.83 34.48ZM178.203 42.1982H171.967L169.921 47H164.894L176.076 23.5391H180.314L183.392 47H178.606L178.203 42.1982ZM173.659 38.2505H177.881L177.22 29.936L173.659 38.2505ZM201.503 44.3413C200.633 45.3081 199.5 46.0547 198.103 46.5811C196.707 47.0967 195.208 47.3438 193.607 47.3223C192.2 47.3115 190.981 47.0054 189.95 46.4038C188.918 45.7915 188.118 44.9106 187.549 43.7612C186.99 42.6011 186.689 41.269 186.646 39.7651C186.614 38.9487 186.652 38.1162 186.759 37.2676L187.339 33.3843C187.833 30.1187 188.897 27.5942 190.53 25.811C192.163 24.0278 194.29 23.1631 196.911 23.2168C199.145 23.2598 200.826 23.9365 201.954 25.2471C203.093 26.5469 203.673 28.4751 203.694 31.0317L199.199 31.0156L199.15 29.7266C199.011 28.0508 198.189 27.186 196.685 27.1323C194.461 27.0464 193 28.5127 192.302 31.5312L192.061 32.7397L191.416 37.2676C191.276 38.2988 191.223 39.1797 191.255 39.9102C191.309 41.1133 191.577 41.9888 192.061 42.5366C192.555 43.0737 193.248 43.353 194.139 43.3745C194.977 43.396 195.912 43.1221 196.943 42.5527L197.765 38.2344H194.526L195.154 34.6572H202.985L201.503 44.3413ZM212.363 47.3223C210.301 47.2793 208.663 46.6025 207.449 45.292C206.246 43.9814 205.59 42.1606 205.483 39.8296C205.44 39.0239 205.472 38.2075 205.58 37.3804L206.176 33.481C206.487 31.397 207.094 29.5493 207.997 27.938C208.899 26.3267 210.021 25.1289 211.364 24.3447C212.707 23.5605 214.222 23.1846 215.908 23.2168C217.992 23.2598 219.625 23.9741 220.807 25.3599C221.999 26.7349 222.638 28.6201 222.724 31.0156C222.746 31.918 222.697 32.772 222.579 33.5776L222.047 37.1709C221.564 40.3936 220.474 42.9072 218.776 44.7119C217.09 46.5059 214.952 47.376 212.363 47.3223ZM217.955 33.4165C218.083 32.3101 218.148 31.4561 218.148 30.8545C218.094 28.459 217.229 27.229 215.554 27.1646C214.265 27.1108 213.223 27.5996 212.428 28.6309C211.644 29.6514 211.096 31.2573 210.784 33.4487L210.22 37.3965C210.091 38.46 210.043 39.2925 210.075 39.894C210.129 42.1499 211.015 43.3154 212.734 43.3906C213.958 43.4336 214.963 42.9824 215.747 42.0371C216.531 41.0918 217.079 39.5449 217.391 37.3965L217.955 33.4165ZM232.231 38.4277H229.878L228.396 47H223.771L227.832 23.5391L234.922 23.5552C237.017 23.6196 238.623 24.2642 239.74 25.4888C240.857 26.7134 241.33 28.3838 241.158 30.5C240.889 33.7119 239.428 35.9463 236.775 37.2031L239.127 46.7422V47H234.165L232.231 38.4277ZM230.555 34.48L232.988 34.5122C234.105 34.4907 234.986 34.0503 235.631 33.1909C236.275 32.3208 236.592 31.1714 236.582 29.7427C236.539 28.3354 235.921 27.5889 234.729 27.5029L231.78 27.4868L230.555 34.48ZM253.388 42.1982H247.152L245.105 47H240.078L251.261 23.5391H255.499L258.576 47H253.791L253.388 42.1982ZM248.844 38.2505H253.065L252.405 29.936L248.844 38.2505ZM266.488 39.7812H262.798L265.102 23.5391H269.823L266.488 39.7812ZM261.332 44.873C261.332 44.1318 261.562 43.5195 262.024 43.0361C262.497 42.5527 263.077 42.3003 263.765 42.2788C264.452 42.2788 265.027 42.5098 265.489 42.9717C265.951 43.4336 266.182 44.0083 266.182 44.6958C266.182 45.437 265.956 46.0493 265.505 46.5327C265.054 47.0161 264.474 47.2686 263.765 47.29C263.045 47.29 262.459 47.0537 262.008 46.5811C261.557 46.1084 261.332 45.5391 261.332 44.873Z" fill="#275A70"/>
</g>
<path d="M299.056 50.4177C298.582 49.3386 297.506 48.009 295.02 49.1017L292.83 50.0646L290.743 45.3167C289.486 42.4571 286.365 42.2457 284.781 43.7576C283.634 44.8522 283.112 46.5971 283.867 48.3132L291.269 65.2579C289.466 63.8924 286.023 63.9078 284.481 65.4951L284.522 65.4342C282.884 67.1202 283.159 69.5099 285.643 71.5978L298.9 82.0315L317.891 73.6826L317.995 72.0278C318.263 67.7222 317.498 63.4149 315.762 59.4657L314.324 56.1956C314.25 56.0261 314.168 55.8605 314.08 55.6992C313.077 53.8663 310.833 53.1107 308.917 53.9438L307.49 54.5644L305.877 50.8956C305.172 49.2899 303.29 48.5595 301.689 49.277L299.056 50.4177Z" fill="white"/>
<path d="M316.636 59.0812L315.198 55.8113C315.113 55.6176 315.019 55.4255 314.918 55.2408C314.318 54.1444 313.334 53.3191 312.147 52.9166C310.964 52.5155 309.681 52.569 308.535 53.0675L307.981 53.3083L307.273 51.6981C307.273 51.6979 307.273 51.6976 307.273 51.6974L306.752 50.5111C306.306 49.4974 305.491 48.7197 304.457 48.3214C303.428 47.925 302.308 47.9538 301.303 48.4022L299.465 49.1985C299.125 48.7148 298.712 48.3457 298.231 48.0965C297.225 47.576 296.015 47.6198 294.635 48.2268L293.319 48.805L291.617 44.9321C290.924 43.3555 289.637 42.2737 288.088 41.964C286.631 41.6728 285.148 42.0849 284.12 43.0661C282.577 44.5385 282.134 46.7491 282.99 48.6961L289.439 63.459C288.899 63.3497 288.33 63.2997 287.752 63.3138C286.253 63.3508 284.904 63.8278 284.001 64.632C283.941 64.6704 283.886 64.7159 283.835 64.7685C282.927 65.7031 282.48 66.8337 282.541 68.0379C282.617 69.5428 283.476 71.0269 285.027 72.3298C285.034 72.3364 285.042 72.3429 285.051 72.3492L298.307 82.7829C298.479 82.918 298.688 82.9876 298.899 82.9876C299.029 82.9876 299.16 82.9611 299.283 82.9068L318.275 74.558C318.602 74.4141 318.822 74.0994 318.844 73.7425L318.948 72.0876C319.225 67.6496 318.426 63.152 316.636 59.0812ZM308.891 60.1288C309.049 60.487 309.399 60.7003 309.767 60.7003C309.895 60.7003 310.026 60.6743 310.151 60.6192C310.634 60.4068 310.854 59.8427 310.642 59.3594L308.751 55.0585L309.298 54.8206C310.776 54.1776 312.471 54.7525 313.24 56.1584C313.315 56.2951 313.385 56.4371 313.448 56.5805L314.886 59.8505C316.553 63.6433 317.298 67.8336 317.04 71.9685L316.973 73.0421L299.039 80.9258L286.246 70.8566C285.136 69.9202 284.498 68.8852 284.45 67.9412C284.419 67.3292 284.629 66.7593 285.074 66.2446C285.106 66.2191 285.137 66.1913 285.166 66.1612C286.311 64.9826 289.164 64.9012 290.655 65.9941L293.948 69.1567C294.133 69.3347 294.371 69.4232 294.61 69.4232C294.861 69.4232 295.111 69.3248 295.299 69.1294C295.665 68.7487 295.653 68.1435 295.272 67.7778L292.068 64.7005L284.741 47.9286C284.099 46.4679 284.681 45.1735 285.44 44.4492C286.009 43.906 286.88 43.6721 287.714 43.8387C288.657 44.0273 289.422 44.6888 289.867 45.7014L295.417 58.3266C295.575 58.6848 295.925 58.898 296.293 58.898C296.421 58.898 296.552 58.872 296.677 58.817C297.16 58.6045 297.38 58.0405 297.167 57.5572L294.089 50.5551L295.404 49.9768C296.23 49.6141 296.885 49.5526 297.353 49.7944C297.683 49.9655 297.962 50.3046 298.181 50.8025L301.454 58.248C301.611 58.6062 301.962 58.8195 302.329 58.8195C302.458 58.8195 302.588 58.7935 302.714 58.7384C303.197 58.5259 303.417 57.9619 303.204 57.4786L300.318 50.9128L302.069 50.1541C302.073 50.1524 302.076 50.1509 302.08 50.1492C302.618 49.9082 303.218 49.8925 303.77 50.1052C304.325 50.3191 304.763 50.7363 305.002 51.2802L308.891 60.1288Z" fill="black"/>
<path d="M312.726 73.9602C312.358 73.9602 312.008 73.7466 311.85 73.388C311.638 72.9045 311.858 72.3407 312.342 72.1287L313.285 71.7151C313.768 71.5029 314.332 71.723 314.544 72.2065C314.756 72.69 314.536 73.2538 314.053 73.4658L313.11 73.8795C312.985 73.9343 312.854 73.9602 312.726 73.9602Z" fill="black"/>
<path d="M299.793 79.6532C299.425 79.6532 299.074 79.4395 298.917 79.0809C298.705 78.5974 298.925 78.0336 299.408 77.8216L309.479 73.4045C309.963 73.1924 310.527 73.4125 310.738 73.8959C310.95 74.3794 310.731 74.9432 310.247 75.1552L300.176 79.5725C300.051 79.6273 299.921 79.6532 299.793 79.6532Z" fill="black"/>
<path d="M285.587 40.0833C285.143 40.0833 284.745 39.7724 284.651 39.3205L283.997 36.1493C283.89 35.6322 284.222 35.1265 284.739 35.0199C285.256 34.9134 285.762 35.2457 285.869 35.7627L286.524 38.9339C286.63 39.451 286.298 39.9567 285.781 40.0634C285.716 40.0768 285.651 40.0833 285.587 40.0833Z" fill="black"/>
<path d="M275.615 39.9373C275.444 39.9373 275.27 39.891 275.113 39.7939L274.453 39.385C274.004 39.107 273.865 38.5179 274.143 38.069C274.421 37.6201 275.011 37.4816 275.459 37.7597L276.12 38.1685C276.569 38.4465 276.707 39.0356 276.429 39.4845C276.248 39.7766 275.935 39.9373 275.615 39.9373Z" fill="black"/>
<path d="M280.85 43.4047C280.67 43.4047 280.487 43.3538 280.325 43.2474L278.286 41.9061C277.845 41.616 277.723 41.0232 278.013 40.5821C278.303 40.1411 278.896 40.0186 279.337 40.3087L281.376 41.65C281.817 41.9401 281.94 42.5329 281.649 42.974C281.466 43.2532 281.161 43.4047 280.85 43.4047Z" fill="black"/>
<path d="M276.67 49.7562C276.226 49.7562 275.828 49.4452 275.735 48.9933C275.628 48.4763 275.961 47.9706 276.478 47.8639L279.649 47.2091C280.166 47.1025 280.672 47.435 280.778 47.9519C280.885 48.469 280.553 48.9747 280.036 49.0815L276.864 49.7363C276.799 49.7497 276.734 49.7562 276.67 49.7562Z" fill="black"/>
<path d="M280.885 57.3343C280.705 57.3343 280.522 57.2834 280.36 57.1769C279.919 56.8868 279.797 56.294 280.087 55.853L281.866 53.1476C282.156 52.7065 282.749 52.584 283.19 52.8742C283.631 53.1643 283.754 53.7571 283.464 54.1982L281.684 56.9035C281.501 57.1828 281.196 57.3343 280.885 57.3343Z" fill="black"/>
<path d="M294.6 45.817C294.156 45.817 293.758 45.5061 293.664 45.0543C293.558 44.5372 293.89 44.0316 294.407 43.9248L296.521 43.4882C297.039 43.3814 297.544 43.714 297.651 44.2311C297.758 44.7481 297.425 45.2538 296.908 45.3606L294.794 45.7972C294.729 45.8105 294.664 45.817 294.6 45.817Z" fill="black"/>
<path d="M300.545 44.5896C300.101 44.5896 299.703 44.2786 299.61 43.8269C299.503 43.3098 299.836 42.8041 300.353 42.6973L301.013 42.5609C301.531 42.4542 302.036 42.7868 302.143 43.3038C302.25 43.8208 301.917 44.3265 301.4 44.4333L300.739 44.5697C300.674 44.5831 300.609 44.5896 300.545 44.5896Z" fill="black"/>
<path d="M291.283 41.0823C291.103 41.0823 290.921 41.0315 290.759 40.925C290.318 40.6349 290.195 40.0421 290.485 39.601L292.265 36.8956C292.555 36.4546 293.148 36.332 293.589 36.6222C294.03 36.9124 294.152 37.5051 293.862 37.9462L292.083 40.6516C291.899 40.9308 291.594 41.0823 291.283 41.0823Z" fill="black"/>
<defs>
<filter id="filter0_d" x="0" y="0" width="315" height="78" filterUnits="userSpaceOnUse" color-interpolation-filters="sRGB">
<feFlood flood-opacity="0" result="BackgroundImageFix"/>
<feColorMatrix in="SourceAlpha" type="matrix" values="0 0 0 0 0 0 0 0 0 0 0 0 0 0 0 0 0 0 127 0"/>
<feOffset dy="4"/>
<feGaussianBlur stdDeviation="2"/>
<feColorMatrix type="matrix" values="0 0 0 0 0 0 0 0 0 0 0 0 0 0 0 0 0 0 0.25 0"/>
<feBlend mode="normal" in2="BackgroundImageFix" result="effect1_dropShadow"/>
<feBlend mode="normal" in="SourceGraphic" in2="effect1_dropShadow" result="shape"/>
</filter>
<filter id="filter1_i" x="24.3164" y="23.2144" width="245.507" height="28.1119" filterUnits="userSpaceOnUse" color-interpolation-filters="sRGB">
<feFlood flood-opacity="0" result="BackgroundImageFix"/>
<feBlend mode="normal" in="SourceGraphic" in2="BackgroundImageFix" result="shape"/>
<feColorMatrix in="SourceAlpha" type="matrix" values="0 0 0 0 0 0 0 0 0 0 0 0 0 0 0 0 0 0 127 0" result="hardAlpha"/>
<feOffset dy="4"/>
<feGaussianBlur stdDeviation="2"/>
<feComposite in2="hardAlpha" operator="arithmetic" k2="-1" k3="1"/>
<feColorMatrix type="matrix" values="0 0 0 0 0 0 0 0 0 0 0 0 0 0 0 0 0 0 0.25 0"/>
<feBlend mode="normal" in2="shape" result="effect1_innerShadow"/>
</filter>
<linearGradient id="paint0_linear" x1="157.5" y1="5" x2="157.5" y2="65" gradientUnits="userSpaceOnUse">
<stop stop-color="#FFF946"/>
<stop offset="1" stop-color="#FFC828"/>
</linearGradient>
</defs>
</svg>
